<svg xmlns="http://www.w3.org/2000/svg" xmlns:xlink="http://www.w3.org/1999/xlink" xmlns:svgjs="http://svgjs.com/svgjs" width="512" height="512" x="0" y="0" viewBox="0 0 24 24" style="enable-background:new 0 0 512 512" xml:space="preserve" class=""><g><path d="M1.5 18a.5.5 0 0 1-.5-.5v-15C1 1.122 2.122 0 3.5 0h6a.5.5 0 0 1 0 1h-6C2.673 1 2 1.673 2 2.5v15a.5.5 0 0 1-.5.5z" fill="#ffffff" data-original="#000000" class=""></path><path d="M18.5 20h-6a.5.5 0 0 1 0-1H18v-3H3.5c-.827 0-1.5.673-1.5 1.5S2.673 19 3.5 19h4a.5.5 0 0 1 0 1h-4C2.122 20 1 18.878 1 17.5S2.122 15 3.5 15h15a.5.5 0 0 1 .5.5v4a.5.5 0 0 1-.5.5z" fill="#ffffff" data-original="#000000" class=""></path><path d="M12.5 24a.505.505 0 0 1-.313-.109L10 22.14l-2.188 1.75A.5.5 0 0 1 7 23.5v-6a.5.5 0 0 1 1 0v4.959l1.688-1.35a.5.5 0 0 1 .625 0L12 22.459V17.5a.5.5 0 0 1 1 0v6a.502.502 0 0 1-.5.5z" fill="#ffffff" data-original="#000000" class=""></path><path d="M14.5 18h-9a.5.5 0 0 1 0-1h9a.5.5 0 0 1 0 1zM16.5 13c-3.584 0-6.5-2.916-6.5-6.5S12.916 0 16.5 0 23 2.916 23 6.5 20.084 13 16.5 13zm0-12C13.467 1 11 3.467 11 6.5s2.467 5.5 5.5 5.5S22 9.533 22 6.5 19.533 1 16.5 1z" fill="#ffffff" data-original="#000000" class=""></path><path d="M18.5 9.5a.502.502 0 0 1-.354-.146l-2-2A.504.504 0 0 1 16 7V3.5a.5.5 0 0 1 1 0v3.293l1.854 1.854a.5.5 0 0 1-.354.853z" fill="#ffffff" data-original="#000000" class=""></path></g></svg>