<svg xmlns="http://www.w3.org/2000/svg" xmlns:xlink="http://www.w3.org/1999/xlink" xmlns:svgjs="http://svgjs.com/svgjs" width="512" height="512" x="0" y="0" viewBox="0 0 319.628 319.628" style="enable-background:new 0 0 512 512" xml:space="preserve" class=""><g><path d="M301.359 156.271h-111.07a4.758 4.758 0 0 1-4.433-3.025 4.757 4.757 0 0 1 1.222-5.225l25.728-23.564V92.585c0-10.077 8.192-18.269 18.281-18.269h70.272c10.077 0 18.269 8.192 18.269 18.269v45.417c0 10.077-8.192 18.269-18.269 18.269zm-98.84-9.507h98.839c4.829 0 8.762-3.933 8.762-8.774V92.585c0-4.841-3.933-8.774-8.762-8.774h-70.272c-4.841 0-8.774 3.933-8.774 8.774v33.967a4.75 4.75 0 0 1-1.536 3.503zM157.638 70.848h-10.88c-2.63 0-4.748-2.129-4.748-4.748s2.129-4.748 4.748-4.748h10.88c2.63 0 4.748 2.129 4.748 4.748s-2.13 4.748-4.748 4.748zM283.951 276.241H20.445C9.169 276.241 0 267.072 0 255.796v-9.705a4.745 4.745 0 0 1 4.748-4.748h136.727a4.745 4.745 0 0 1 4.748 4.748 4.745 4.745 0 0 1-4.748 4.748H9.495v4.945c0 6.039 4.911 10.95 10.95 10.95H283.95c6.039 0 10.95-4.911 10.95-10.95v-4.945H162.932a4.745 4.745 0 0 1-4.748-4.748 4.745 4.745 0 0 1 4.748-4.748H299.66a4.745 4.745 0 0 1 4.748 4.748v9.705c-.001 11.276-9.182 20.445-20.457 20.445z" fill="#ffffff" data-original="#000000" class=""></path><path d="M141.463 250.839H20.666a4.745 4.745 0 0 1-4.748-4.748V63.843c0-11.276 9.169-20.457 20.445-20.457h231.668c11.276 0 20.445 9.169 20.445 20.457v15.22a4.745 4.745 0 0 1-4.748 4.748 4.753 4.753 0 0 1-4.748-4.748v-15.22c0-6.039-4.911-10.95-10.95-10.95H36.364c-6.039 0-10.95 4.911-10.95 10.95v177.501h116.049a4.745 4.745 0 0 1 4.748 4.748 4.745 4.745 0 0 1-4.748 4.747zM283.729 250.839H162.932c-2.63 0-4.748-2.129-4.748-4.748s2.129-4.748 4.748-4.748h116.049v-89.821a4.745 4.745 0 0 1 4.748-4.748 4.753 4.753 0 0 1 4.748 4.748v94.569a4.752 4.752 0 0 1-4.748 4.748z" fill="#ffffff" data-original="#000000" class=""></path><path d="M152.192 261.568c-8.541 0-15.476-6.947-15.476-15.488 0-2.63 2.129-4.748 4.748-4.748s4.748 2.129 4.748 4.748c0 3.293 2.688 5.981 5.981 5.981s5.981-2.676 5.981-5.981a4.745 4.745 0 0 1 4.748-4.748 4.753 4.753 0 0 1 4.748 4.748c.01 8.541-6.937 15.488-15.478 15.488zM197.923 216.547a4.745 4.745 0 0 1-4.748-4.748v-21.097a3.29 3.29 0 0 0-.151-1.001 5.999 5.999 0 0 1-.116-.442c-1.315-6.26-7.18-20.829-33.001-20.829h-6.633c-.372 0-.733-.047-1.082-.128-.349.081-.71.128-1.082.128h-6.633c-25.821 0-31.686 14.569-33.001 20.829-.035.151-.07.303-.116.442a3.205 3.205 0 0 0-.151 1.001v21.097c0 2.63-2.129 4.748-4.748 4.748s-4.748-2.129-4.748-4.748v-21.097c0-1.222.175-2.444.524-3.607 1.315-6.028 7.133-23.052 30.883-27.229a23.17 23.17 0 0 1-5.225-14.662v-17.373c0-12.812 10.415-23.226 23.226-23.226h2.153c12.812 0 23.226 10.415 23.226 23.226v17.373a23.102 23.102 0 0 1-5.225 14.662c23.738 4.177 29.556 21.201 30.883 27.229a12.63 12.63 0 0 1 .512 3.607v21.097c.012 2.63-2.117 4.748-4.747 4.748zM151.121 114.1c-7.564 0-13.731 6.156-13.731 13.719v17.373c0 7.564 6.156 13.719 13.731 13.719.372 0 .733.047 1.082.128.349-.081.71-.128 1.082-.128 7.564 0 13.731-6.156 13.731-13.719V127.82c0-7.564-6.156-13.719-13.731-13.719h-2.164z" fill="#ffffff" data-original="#000000" class=""></path></g></svg>